# xmcd CD database file
#
# Track frame offsets:
#	150
#	18677
#	35930
#	51072
#	68612
#	86330
#	103147
#	116177
#	135590
#	158485
#	175897
#	195125
#	214685
#
# Disc length: 3103 seconds
#
# Revision: 2
# Processed by: cddbd v1.4PL0 Copyright (c) Steve Scherf et al.
# Submitted via: Feurio! 1.65 - http://www.feurio.com
#
DISCID=ac0c1d0d
DTITLE=Toto Cutugno - Solo noi
DYEAR=1900
DGENRE=blues
TTITLE0=Solo noi
TTITLE1=Serenata
TTITLE2=Flash
TTITLE3=Un'estate con te
TTITLE4=Innamorati
TTITLE5=Volo AZ 504
TTITLE6='na parola
TTITLE7=La mia musica
TTITLE8=Mi dici che stai bene con me
TTITLE9=L'estate vola via
TTITLE10=Con te
TTITLE11=Aio' Aio' Polinesia
TTITLE12=Mi va
EXTD=
EXTT0=
EXTT1=
EXTT2=
EXTT3=
EXTT4=
EXTT5=
EXTT6=
EXTT7=
EXTT8=
EXTT9=
EXTT10=
EXTT11=
EXTT12=
PLAYORDER=
